# xmcd
#
# Track frame offsets:
#	203
#	18777
#	29731
#	46311
#	61975
#	75261
#	93538
#	116208
#	132643
#	149742
#	159418
#	171539
#
# Disc length: 2430 seconds
#
# Revision: 1
# Processed by: cddbd v1.4PL0 Copyright (c) Steve Scherf et al.
# Submitted via: audiograbber 1.81.01
#
DISCID=aa097c0c
DTITLE=The Shadows - Pole Interpretators
DYEAR=1997
DGENRE=Blues
TTITLE0=Every Woman I Know Is Crazy (About An Automobile)
TTITLE1=Timber I'm Falling In Love
TTITLE2=Shake Your Hips
TTITLE3=You Got Me Where You Want Me
TTITLE4=Put Your Cat Clothes On
TTITLE5=Pretty Child
TTITLE6=One Broken Heart
TTITLE7=Falling Angels
TTITLE8=Blue Midnight
TTITLE9=All Mamas Children
TTITLE10=I Forgot To Be Your Lover
TTITLE11=Bo Diddley's A Gunslinger
EXTD=
EXTT0=
EXTT1=
EXTT2=
EXTT3=
EXTT4=
EXTT5=
EXTT6=
EXTT7=
EXTT8=
EXTT9=
EXTT10=
EXTT11=
PLAYORDER=
